{
  "accessors": [
    {
      "bufferView": 2,
      "componentType": 5126,
      "count": 62001,
      "max": [
        0.8433630466461182,
        0.8507207632064819,
        -0.2419779896736145
      ],
      "min": [
        -0.8484244346618652,
        -0.8499583005905151,
        -1.2003370523452759
      ],
      "type": "VEC3"
    },
    {
      "bufferView": 2,
      "byteOffset": 744012,
      "componentType": 5126,
      "count": 62001,
      "max": [
        0.9999918937683105,
        0.9999809265136719,
        0.9999971389770508
      ],
      "min": [
        -0.9999796152114868,
        -0.9999876022338867,
        -0.9999942779541016
      ],
      "type": "VEC3"
    },
    {
      "bufferView": 1,
      "componentType": 5126,
      "count": 62001,
      "max": [
        1.000000238418579,
        1.000000238418579
      ],
      "min": [
        0.0,
        0.0
      ],
      "type": "VEC2"
    },
    {
      "bufferView": 0,
      "componentType": 5125,
      "count": 371712,
      "type": "SCALAR"
    }
  ],
  "asset": {
    "extras": {
      "author": "ozybu (https://sketchfab.com/ozybu)",
      "license": "CC-BY-SA-4.0 (http://creativecommons.org/licenses/by-sa/4.0/)",
      "source": "https://sketchfab.com/3d-models/pillow-90d0c49db71a48ceb3b37c30ca55cdbd",
      "title": "Pillow"
    },
    "generator": "Sketchfab-12.67.0",
    "version": "2.0"
  },
  "bufferViews": [
    {
      "buffer": 0,
      "byteLength": 1486848,
      "name": "floatBufferViews",
      "target": 34963
    },
    {
      "buffer": 0,
      "byteLength": 496008,
      "byteOffset": 1486848,
      "byteStride": 8,
      "name": "floatBufferViews",
      "target": 34962
    },
    {
      "buffer": 0,
      "byteLength": 1488024,
      "byteOffset": 1982856,
      "byteStride": 12,
      "name": "floatBufferViews",
      "target": 34962
    }
  ],
  "buffers": [
    {
      "byteLength": 3470880,
      "uri": "scene.bin"
    }
  ],
  "images": [
    {
      "uri": "textures/FabricUpholsteryBrightAnglePattern001_3K.001_baseColor.jpeg"
    }
  ],
  "materials": [
    {
      "doubleSided": true,
      "name": "FabricUpholsteryBrightAnglePattern001_3K.001",
      "pbrMetallicRoughness": {
        "baseColorTexture": {
          "index": 0
        },
        "metallicFactor": 0.0
      }
    }
  ],
  "meshes": [
    {
      "name": "Plane_FabricUpholsteryBrightAnglePattern001_3K.001_0",
      "primitives": [
        {
          "attributes": {
            "NORMAL": 1,
            "POSITION": 0,
            "TEXCOORD_0": 2
          },
          "indices": 3,
          "material": 0,
          "mode": 4
        }
      ]
    }
  ],
  "nodes": [
    {
      "children": [
        1
      ],
      "matrix": [
        0.0024775504134595394,
        0.0,
        0.0,
        0.0,
        0.0,
        5.501267027384714e-19,
        -0.0024775504134595394,
        0.0,
        0.0,
        0.0024775504134595394,
        5.501267027384714e-19,
        0.0,
        0.0,
        0.0,
        0.0,
        1.0
      ],
      "name": "Sketchfab_model"
    },
    {
      "children": [
        2
      ],
      "matrix": [
        1.0,
        0.0,
        0.0,
        0.0,
        0.0,
        0.0,
        1.0,
        0.0,
        0.0,
        -1.0,
        0.0,
        0.0,
        0.0,
        0.0,
        0.0,
        1.0
      ],
      "name": "075492fe726542efa01e688fddb5fa41.fbx"
    },
    {
      "children": [
        3
      ],
      "name": "RootNode"
    },
    {
      "children": [
        4
      ],
      "matrix": [
        100.0,
        0.0,
        0.0,
        0.0,
        0.0,
        -1.629206793918314e-05,
        -99.99999999999868,
        0.0,
        0.0,
        99.99999999999868,
        -1.629206793918314e-05,
        0.0,
        0.0,
        138.1342315673828,
        0.0,
        1.0
      ],
      "name": "Plane"
    },
    {
      "mesh": 0,
      "name": "Plane_FabricUpholsteryBrightAnglePattern001_3K.001_0"
    }
  ],
  "samplers": [
    {
      "magFilter": 9729,
      "minFilter": 9987,
      "wrapS": 10497,
      "wrapT": 10497
    }
  ],
  "scene": 0,
  "scenes": [
    {
      "name": "Sketchfab_Scene",
      "nodes": [
        0
      ]
    }
  ],
  "textures": [
    {
      "sampler": 0,
      "source": 0
    }
  ]
}
