{
  "asset": {
    "version": "2.0",
    "generator": "THREE.GLTFExporter"
  },
  "scenes": [
    {
      "nodes": [
        0
      ]
    }
  ],
  "scene": 0,
  "nodes": [
    {
      "children": [
        6
      ],
      "matrix": [
        0.01,
        0,
        0,
        0,
        0,
        0.01,
        0,
        0,
        0,
        0,
        0.01,
        0,
        0,
        0,
        0,
        1
      ]
    },
    {
      "name": "back",
      "mesh": 0
    },
    {
      "name": "front",
      "mesh": 1
    },
    {
      "matrix": [
        57.06459580099505,
        0,
        0,
        0,
        0,
        57.06459580099505,
        0,
        0,
        0,
        0,
        57.06459580099505,
        0,
        0,
        0,
        0,
        1
      ],
      "name": "SQ pillow with 2 sides-5",
      "children": [
        1,
        2
      ]
    },
    {
      "matrix": [
        1,
        0,
        0,
        0,
        0,
        1,
        -6.123233995736766e-17,
        0,
        0,
        6.123233995736766e-17,
        1,
        0,
        0,
        6.123233995736766e-14,
        1000,
        1
      ],
      "camera": 0
    },
    {
      "matrix": [
        1,
        0,
        0,
        0,
        0,
        1,
        0,
        0,
        0,
        0,
        1,
        0,
        0,
        1,
        0,
        1
      ],
      "name": "Default Ambient Light"
    },
    {
      "name": "Scene 1",
      "children": [
        3,
        4,
        5
      ]
    }
  ],
  "bufferViews": [
    {
      "buffer": 0,
      "byteOffset": 0,
      "byteLength": 139104,
      "target": 34962,
      "byteStride": 12
    },
    {
      "buffer": 0,
      "byteOffset": 139104,
      "byteLength": 139104,
      "target": 34962,
      "byteStride": 12
    },
    {
      "buffer": 0,
      "byteOffset": 278208,
      "byteLength": 92736,
      "target": 34962,
      "byteStride": 8
    },
    {
      "buffer": 0,
      "byteOffset": 370944,
      "byteLength": 139104,
      "target": 34962,
      "byteStride": 12
    },
    {
      "buffer": 0,
      "byteOffset": 510048,
      "byteLength": 139104,
      "target": 34962,
      "byteStride": 12
    },
    {
      "buffer": 0,
      "byteOffset": 649152,
      "byteLength": 92736,
      "target": 34962,
      "byteStride": 8
    }
  ],
  "buffers": [
    {
      "byteLength": 741888,
      "uri": "data:application/octet-stream;base64,"
    }
  ],
  "accessors": [
    {
      "bufferView": 0,
      "componentType": 5126,
      "count": 11592,
      "max": [
        0.8756999969482422,
        0.8762000203132629,
        0.4812000095844269
      ],
      "min": [
        -0.8784999847412109,
        -0.8762000203132629,
        0.007699999958276749
      ],
      "type": "VEC3"
    },
    {
      "bufferView": 1,
      "componentType": 5126,
      "count": 11592,
      "max": [
        0.9987999796867371,
        0.005799999926239252,
        0.9988999962806702
      ],
      "min": [
        -0.9990000128746033,
        -1,
        -0.9997000098228455
      ],
      "type": "VEC3"
    },
    {
      "bufferView": 2,
      "componentType": 5126,
      "count": 11592,
      "max": [
        1,
        1
      ],
      "min": [
        0,
        0
      ],
      "type": "VEC2"
    },
    {
      "bufferView": 3,
      "componentType": 5126,
      "count": 11592,
      "max": [
        0.8756999969482422,
        0.8762000203132629,
        0.009999999776482582
      ],
      "min": [
        -0.8784999847412109,
        -0.8762000203132629,
        -0.4636000096797943
      ],
      "type": "VEC3"
    },
    {
      "bufferView": 4,
      "componentType": 5126,
      "count": 11592,
      "max": [
        0.9987999796867371,
        0.005799999926239252,
        0.9988999962806702
      ],
      "min": [
        -0.9990000128746033,
        -1,
        -0.9997000098228455
      ],
      "type": "VEC3"
    },
    {
      "bufferView": 5,
      "componentType": 5126,
      "count": 11592,
      "max": [
        1,
        1
      ],
      "min": [
        0,
        0
      ],
      "type": "VEC2"
    }
  ],
  "meshes": [
    {
      "primitives": [
        {
          "mode": 4,
          "attributes": {
            "POSITION": 0,
            "NORMAL": 1,
            "TEXCOORD_0": 2
          },
          "extras": {
            "parameters": {
              "width": 1.7541999816894531,
              "height": 1.7524000406265259,
              "depth": 0.47350000962615013,
              "subdivisions": 0
            },
            "type": "NonParametricGeometry"
          }
        }
      ]
    },
    {
      "primitives": [
        {
          "mode": 4,
          "attributes": {
            "POSITION": 3,
            "NORMAL": 4,
            "TEXCOORD_0": 5
          },
          "extras": {
            "parameters": {
              "width": 1.7541999816894531,
              "height": 1.7524000406265259,
              "depth": 0.4736000094562769,
              "subdivisions": 0
            },
            "type": "NonParametricGeometry"
          }
        }
      ]
    }
  ],
  "cameras": [
    {
      "type": "orthographic",
      "orthographic": {
        "xmag": 8.64,
        "ymag": 4.365,
        "zfar": 100000,
        "znear": 0
      }
    }
  ]
}